<?xml version="1.0" encoding="UTF-8"?><!-- Generator: Adobe Illustrator 24.2.1, SVG Export Plug-In . SVG Version: 6.00 Build 0)  --><svg width="217" height="194" viewBox="0 0 239.8443359375 215.3" xmlns="http://www.w3.org/2000/svg" xmlns:xlink="http://www.w3.org/1999/xlink" version="1.1" id="Layer_1" x="0px" y="0px" style="enable-background:new 0 0 565.9 215.3;" xml:space="preserve">
<style xmlns="http://www.w3.org/2000/svg" type="text/css">
	.st0{fill:#221F1F;}
	.st1{fill:#595A5C;}
	.st2{fill:#FFFFFF;}
	.st3{fill:#E30518;}
	.st4{clip-path:url(#SVGID_2_);fill:url(#SVGID_3_);}
</style>
<path xmlns="http://www.w3.org/2000/svg" class="st0" d="M300.6,203.8h-14.3c-2.1,4.7-7.1,7.7-15.2,9l-1.6-3c7.1-1.2,11.4-3.2,13.1-6h-12.2v-2.6h13.1  c0.2-0.7,0.2-1.5,0.2-2.3h3.3c0,0.9-0.1,1.7-0.1,2.3h13.6V203.8z M301.3,197.9h-31.6v-2.5h14.1v-2.3h-11.1v-2.5h11.1v-2.1h-12.6  v-2.6h28.5v2.6h-12.6v2.1h11v2.5h-11v2.3h14.2V197.9z M282.4,184.7l-3.4,0.9c-0.8-1.1-1.7-2.1-2.7-3.1l3.2-1  C280.6,182.5,281.6,183.5,282.4,184.7 M301.7,210.4l-2,2.5c-3.8-2.2-8.4-4-13.6-5.4l2-2.6C293.8,206.5,298.4,208.4,301.7,210.4   M295,182.2c-0.7,1-1.5,2.1-2.5,3.3l-3.6-0.9c1.2-1.1,2.1-2.2,2.7-3.1L295,182.2z"/>
<path xmlns="http://www.w3.org/2000/svg" class="st0" d="M352.8,212.5h-3.3v-1.4h-22.6v1.4h-3.2v-30.3h29.1V212.5z M349.6,185h-22.6v23.4h22.6V185z M338.7,203.5  c-3.4,1.3-7,2.3-10.7,3.1l-0.4-2.8c3.5-0.6,7.1-1.6,10.9-3L338.7,203.5z M349.1,202.2c-0.6,3.5-1.9,5.2-3.8,5.2  c-1.2,0-2.3-0.8-3.2-2.4c-1.1,1.2-2.2,2.2-3.3,2.9l-2.1-2c1.4-1.1,2.8-2.4,4.1-4c-0.9-2.7-1.5-6.3-1.8-10.9h-10.8v-2.5h10.7  c0-0.4,0-1.4,0-2.7l3-0.1c0,0.9,0,1.9,0.1,2.8h4.1c-0.9-0.5-1.9-0.9-3.1-1.3l1.8-1.7c1.2,0.4,2.3,0.9,3.3,1.5l-1.6,1.6h2v2.5H342  c0.2,3.1,0.5,5.6,1.1,7.5c1-1.9,2-4.1,2.7-6.5l2.6,1.2c-1.1,3.8-2.5,6.9-4.2,9.2c0.2,0.6,0.4,1.1,0.7,1.4c0.3,0.3,0.5,0.5,0.6,0.5  c0.2,0,0.4-0.3,0.7-1c0.3-0.6,0.5-1.7,0.7-3L349.1,202.2z M337.6,200.3h-8.7v-7.5h8.7V200.3z M334.6,195.4h-2.7v2.4h2.7V195.4z"/>
<path xmlns="http://www.w3.org/2000/svg" class="st0" d="M406.9,211.3h-23v1.2h-3.3v-13.7c-1.3,1.2-2.4,2.2-3.5,2.9l-2.2-2.6c3.8-2.7,6.8-5.9,9.1-9.4h-7.9v-3h9.7  c0.7-1.3,1.4-3.1,2.3-5.3l3.2,0.8c-0.6,1.6-1.2,3.1-1.8,4.5h17v3h-18.6c-1.2,1.9-2.5,3.8-3.9,5.6v12.9h9.3V200h-7.4v-3h7.4v-5.6h3.4  v5.6h7.9v3h-7.9v8.2h10.4V211.3z"/>
<path xmlns="http://www.w3.org/2000/svg" class="st0" d="M460,194.5l-2.8,2.2c-0.7-1-1.4-2.1-2.2-3.1c-9.4,1.1-18,1.7-26,1.9l-0.8-3c3.5-1.1,7.3-4.8,11.3-11.2l3.7,0.7  c-2.4,3.8-5.3,7.2-8.6,10.1c4.8-0.2,10.8-0.6,18-1.4c-1.5-1.6-3.3-3.2-5.5-4.9l2.8-2.1C454.3,187.5,457.7,191,460,194.5   M456.8,212.5h-3.3v-1.6h-19.2v1.6H431v-14.6h25.8V212.5z M453.5,200.9h-19.1v6.9h19.1V200.9z"/>
<path xmlns="http://www.w3.org/2000/svg" class="st0" d="M490.6,193.1h-3.2v19.4h-3.2v-19.4h-3.4v-3h3.4v-8.4h3.2v8.4h3.2V193.1z M500.4,198c0,2.8-0.2,5.5-0.4,8.1  c-0.3,2.6-0.5,4.3-0.7,4.8c-0.2,0.6-0.5,1-1,1.2c-0.4,0.2-1.2,0.3-2.5,0.3c-0.4,0-0.9,0-1.5,0l-1-2.9c0.6,0.1,1.2,0.1,1.7,0.1  c0.9,0,1.4-0.1,1.6-0.3c0.1-0.2,0.3-1.1,0.5-2.7c0.2-1.6,0.3-3.5,0.3-5.8H495c-0.7,5.3-2.2,9.3-4.4,12l-2.4-1.5  c2.1-2.9,3.4-6.4,3.9-10.5h-2.6V198h2.8c0.1-0.9,0.2-1.8,0.2-2.6h2.8c0,0.7,0,1.6-0.1,2.6H500.4z M511.4,184.4  c-0.2,3.5-0.4,5.9-0.7,7.1c-0.3,1.2-0.9,2-1.8,2.4c-0.9,0.4-2.9,0.6-6.1,0.5l-0.9-2.8c1.1,0.1,2,0.1,2.8,0.1c1.5,0,2.4-0.2,2.7-0.6  c0.3-0.4,0.5-1.7,0.5-3.8h-6c-1.6,3.3-4.6,5.8-9,7.3l-1.8-2.6c3-0.8,5.4-2.4,7.3-4.7h-6.9v-2.9h8c0.1-0.8,0.2-1.7,0.3-2.8h3.1  c0,0.9-0.1,1.8-0.3,2.8H511.4z M512.3,198c0,3.3-0.1,6.1-0.3,8.5c-0.2,2.4-0.4,3.9-0.7,4.4c-0.3,0.5-0.7,0.9-1.2,1.2  c-0.5,0.2-1.4,0.4-2.6,0.4c-0.4,0-0.8,0-1.2-0.1l-0.8-2.9c0.9,0.1,1.6,0.1,2.3,0.1c0.3,0,0.6-0.1,0.7-0.4c0.2-0.3,0.3-1.3,0.5-3.2  c0.2-1.9,0.2-3.6,0.2-5.3H507c-0.6,5.3-2,9.3-4.2,12.1l-2.4-1.5c1.9-2.5,3.2-6,3.7-10.6h-2.6V198h2.9c0.1-0.8,0.1-1.7,0-2.7h2.8  c0,0.8,0,1.7-0.1,2.7H512.3z"/>
<path xmlns="http://www.w3.org/2000/svg" class="st0" d="M565.9,187.9l-1.3,2.8c-3-0.7-6-1.7-9-2.9v1.3h-11.9v-1.4c-2.8,1.2-5.8,2.2-8.9,3l-1.6-2.5  c7.2-1.8,12.5-4.1,15.9-6.9l3.6,0.8c-0.3,0.3-0.5,0.5-0.6,0.7C555.3,184.9,559.9,186.6,565.9,187.9 M562.5,199.6h-26v-9.1h26V199.6z   M561,212.4h-3.2v-1.3h-16.3v1.3h-3.3v-11.3H561V212.4z M547.9,193h-8.2v4.2h8.2V193z M546.3,195.4l-2.3,1.4c-0.9-0.7-1.9-1.4-3-2.1  l2.3-1.5C544,193.7,545,194.4,546.3,195.4 M557.8,203.6h-16.3v1.5h16.3V203.6z M557.8,207.2h-16.3v1.6h16.3V207.2z M553,186.6  c-2-1-3.1-1.7-3.6-2c-1,0.7-2.1,1.4-3.4,2H553z M559.3,193h-8.2v4.2h8.2V193z M557.9,194.7c-0.8,0.6-1.8,1.3-3.1,2.1l-2.2-1.5  c1.4-0.9,2.4-1.5,3-1.9L557.9,194.7z"/>
<path xmlns="http://www.w3.org/2000/svg" class="st0" d="M305.1,37.5h-7.9c0-1.3-1.6-5.3-4.7-12.1h-21.6c-3.1,6.7-4.7,10.8-4.7,12.1h-7.6c0-0.7,3.2-6.9,9.7-18.4  c6.5-11.6,9.7-17.9,9.7-19.1h8.7c0,1.1,3.1,7.4,9.2,18.8C302,30.2,305.1,36.5,305.1,37.5 M290.7,21.6c-5.9-11.3-8.8-17.3-8.8-18  h-0.4c0,0.6-3,6.6-9.1,18H290.7z"/>
<path xmlns="http://www.w3.org/2000/svg" class="st1" d="M346,37.5h-4.8c0-2.9-0.3-7.1-0.8-12.7c-0.5-5.5-0.8-8.8-0.8-9.9h-0.3c-1.7,4.2-3.9,8.9-6.5,13.8  c-2.6,5-3.9,7.9-3.9,8.8h-3.5c0-0.9-1.2-3.9-3.7-8.9c-2.4-5-4-8.4-4.6-10.1c-0.6-1.7-1.1-2.9-1.3-3.6h-0.3c0,1.8-0.4,5.4-1,10.9  c-0.6,5.4-0.9,9.4-0.9,11.8h-4.4c0-0.1,0.6-3.7,1.7-10.8c1.2-7.1,1.8-12,1.8-14.7h6.7c0,1.4,1.4,5,4.1,10.8  c2.7,5.8,4.1,9.3,4.1,10.5h0.3c0-1.2,1.6-4.7,4.6-10.5c3.1-5.8,4.6-9.4,4.6-10.8h6.6c0,2.8,0.4,7.7,1.2,14.7  C345.6,33.7,346,37.3,346,37.5"/>
<path xmlns="http://www.w3.org/2000/svg" class="st1" d="M375.9,34.6l-0.2,3h-20.6c0.2-4.1,0.4-8.6,0.4-13.4c0-4.6-0.1-8.7-0.4-12.1h19.3l-0.2,2.9  c-4.7-0.1-9.7-0.2-14.9-0.2c0.1,2,0.1,4.8,0.1,8.2c4.6,0,8.6-0.1,12.1-0.2v2.9c-3.8-0.1-7.8-0.2-12.1-0.2c0,3.4,0.1,6.5,0.2,9.5  C365.4,34.9,370.7,34.8,375.9,34.6"/>
<path xmlns="http://www.w3.org/2000/svg" class="st1" d="M407.6,37.5h-4.9c-1.7-3.8-2.8-6.3-3.6-7.5c-1-1.5-2-2.5-3.2-3c-1-0.3-2.7-0.5-5.1-0.5c-1.5,0-2.7,0-3.9,0  c0,4.2,0.1,7.9,0.3,10.9h-4.8c0.2-4.1,0.4-8.6,0.4-13.4c0-4.6-0.1-8.7-0.4-12.1h3.6c0.7,0,1.7,0,2.9-0.1c1.2,0,2.5-0.1,4-0.1  c7.5,0,11.2,2,11.2,5.9c0,3.3-2.1,5.6-6.3,6.9v0.2c1.9,0.4,3.4,1.5,4.6,3C403.4,29.2,405.1,32.4,407.6,37.5 M399.8,19.1  c0-3.1-2.7-4.7-8.3-4.7c-1.9,0-3.6,0.1-4.9,0.3c0.1,2.3,0.2,5.4,0.2,9.3c1,0,2,0,2.9,0C396.4,24,399.8,22.4,399.8,19.1"/>
<path xmlns="http://www.w3.org/2000/svg" class="st1" d="M419,37.5h-4.9c0.3-4.3,0.4-8.7,0.4-13.4c0-4.7-0.1-8.7-0.4-12.1h4.9c-0.2,3.6-0.3,7.6-0.3,12.1  C418.6,28.8,418.7,33.3,419,37.5"/>
<path xmlns="http://www.w3.org/2000/svg" class="st1" d="M451.2,34.4l-0.3,2.9c-2.1,0.5-4.4,0.7-6.9,0.7c-5.9,0-10.3-1.3-13.2-3.7c-2.9-2.5-4.4-5.5-4.4-9  c0-3.8,1.7-7,4.9-9.7c3.3-2.7,7.7-4,13.3-4c1.5,0,3.1,0.2,4.9,0.5l-0.7,3.1c-2-0.5-3.7-0.7-5.3-0.7c-4.1,0-7.2,1-9.4,2.9  c-2.1,1.9-3.2,4.4-3.2,7.2c0,2.9,1.2,5.4,3.7,7.4c2.5,2.1,5.9,3.1,10.2,3.1C446.4,35.2,448.5,35,451.2,34.4"/>
<path xmlns="http://www.w3.org/2000/svg" class="st1" d="M484.6,37.5h-5.4c0-0.9-1.1-3.7-3.2-8.3h-14.8c-2.1,4.6-3.2,7.3-3.2,8.3h-5.2c0-0.5,2.2-4.7,6.6-12.6  c4.4-7.9,6.6-12.2,6.6-13h6c0,0.8,2.1,5,6.3,12.8C482.5,32.6,484.6,36.8,484.6,37.5 M474.8,26.7c-4-7.7-6-11.8-6-12.3h-0.3  c0,0.4-2.1,4.5-6.2,12.3H474.8z"/>
<path xmlns="http://www.w3.org/2000/svg" class="st1" d="M515.4,37.5h-3.6c0-0.2-2.8-3.4-8.4-9.4c-5.9-6.4-9.2-10.4-10-12h-0.3c0.3,3.1,0.5,5.9,0.5,8.1  c0,4.4,0.1,8.8,0.4,13.3h-4.3c0.3-4.3,0.4-8.8,0.4-13.4c0-4.6-0.2-8.7-0.4-12.1h4.9c0,0.4,2.6,3.3,7.7,9c5.4,5.9,8.5,9.7,9.2,11.5  h0.3c-0.3-3.2-0.4-5.9-0.4-8.1c0-4.9-0.1-9-0.4-12.3h4.4c-0.3,3.5-0.4,7.5-0.4,12.1C515,28.8,515.1,33.3,515.4,37.5"/>
<path xmlns="http://www.w3.org/2000/svg" class="st0" d="M282.2,96.7h-7.1c0.4-6.2,0.5-12.8,0.5-19.7c0-6.8-0.2-12.8-0.5-17.8h7.1c-0.3,5.2-0.5,11.2-0.5,17.8  C281.7,84,281.8,90.5,282.2,96.7"/>
<path xmlns="http://www.w3.org/2000/svg" class="st1" d="M319.8,96.7h-3.6c0-0.2-2.8-3.3-8.4-9.4c-5.8-6.4-9.2-10.4-10-12h-0.3c0.3,3.1,0.5,5.9,0.5,8.1  c0,4.4,0.1,8.9,0.4,13.3h-4.3c0.3-4.3,0.4-8.7,0.4-13.4c0-4.6-0.2-8.7-0.4-12.1h4.9c0,0.4,2.6,3.3,7.7,8.9c5.4,5.9,8.5,9.7,9.2,11.5  h0.2c-0.3-3.2-0.4-5.9-0.4-8.1c0-4.8-0.1-9-0.4-12.3h4.4c-0.3,3.5-0.4,7.5-0.4,12.1C319.3,88,319.4,92.4,319.8,96.7"/>
<path xmlns="http://www.w3.org/2000/svg" class="st1" d="M348.8,90.1c0,4.9-4.4,7.3-13.2,7.3c-3.2,0-6.1-0.3-8.6-0.8l0.9-3.1c2.9,0.8,5.6,1.1,8.2,1.1  c5.8,0,8.7-1.2,8.7-3.8c0-1.3-0.7-2.3-2.3-3.2c-1-0.6-3-1.4-5.9-2.4c-3.1-1-5.3-2-6.5-2.9c-1.7-1.2-2.6-2.8-2.6-4.6  c0-1.9,0.9-3.5,2.6-4.7c2-1.4,4.7-2,8.3-2c4.1,0,6.8,0.2,8.3,0.6l-0.6,3.1c-2.6-0.6-5.3-0.9-8.3-0.9c-4.4,0-6.6,1.1-6.6,3.4  c0,1.1,0.6,2,1.9,2.7c0.8,0.5,2.6,1.2,5.4,2.1c3.2,1.1,5.5,2.1,6.9,3C347.8,86.2,348.8,88,348.8,90.1"/>
<path xmlns="http://www.w3.org/2000/svg" class="st1" d="M377.5,71.1l-0.1,2.8c-3.4-0.1-6.9-0.2-10.5-0.2c0,2.5-0.1,5.7-0.1,9.6c0,4.3,0.1,8.8,0.2,13.4h-4.7  c0.2-4.5,0.3-8.9,0.3-13.4c0-3.8,0-7-0.1-9.6c-2.5,0-6.1,0.1-10.7,0.2l0.1-2.8H377.5z"/>
<path xmlns="http://www.w3.org/2000/svg" class="st1" d="M387.8,96.7h-4.9c0.3-4.3,0.4-8.7,0.4-13.4c0-4.6-0.1-8.7-0.4-12.1h4.9c-0.3,3.6-0.4,7.6-0.4,12.1  C387.4,88,387.5,92.5,387.8,96.7"/>
<path xmlns="http://www.w3.org/2000/svg" class="st1" d="M418.7,71.1l-0.1,2.8c-3.4-0.1-6.9-0.2-10.5-0.2c0,2.5-0.1,5.7-0.1,9.6c0,4.3,0.1,8.8,0.2,13.4h-4.7  c0.2-4.5,0.3-8.9,0.3-13.4c0-3.8-0.1-7-0.2-9.6c-2.5,0-6.1,0.1-10.7,0.2l0.1-2.8H418.7z"/>
<path xmlns="http://www.w3.org/2000/svg" class="st1" d="M450.8,71.1c-0.1,2.5-0.1,4.8-0.2,6.9c0,2.1-0.1,4.1-0.1,6c0,8.8-4.5,13.2-13.5,13.2c-2.3,0-4.4-0.2-6.1-0.8  c-1.7-0.5-3-1.3-4.1-2.4c-1.1-1.1-1.9-2.4-2.4-4c-0.5-1.6-0.8-3.6-0.8-5.8c0-2,0-4-0.1-6.2c0-2.2-0.1-4.5-0.1-7h4.8  c-0.2,5-0.3,8.9-0.3,11.7c0,2.3,0.2,4.1,0.4,5.6c0.3,1.4,0.8,2.6,1.6,3.6c0.7,0.9,1.7,1.6,2.8,2c1.1,0.4,2.5,0.6,4.3,0.6  c1.8,0,3.3-0.2,4.5-0.6c1.1-0.4,2.1-1.1,2.8-2c0.7-0.9,1.2-2.1,1.5-3.6c0.3-1.5,0.5-3.3,0.5-5.7c0-1.4,0-3.1-0.1-5  c-0.1-1.9-0.2-4.2-0.3-6.7H450.8z"/>
<path xmlns="http://www.w3.org/2000/svg" class="st1" d="M481.2,71.1l-0.1,2.8c-3.4-0.1-6.9-0.2-10.5-0.2c0,2.5-0.1,5.7-0.1,9.6c0,4.3,0.1,8.8,0.2,13.4h-4.7  c0.2-4.5,0.3-8.9,0.3-13.4c0-3.8-0.1-7-0.2-9.6c-2.5,0-6.1,0.1-10.6,0.2l0.1-2.8H481.2z"/>
<path xmlns="http://www.w3.org/2000/svg" class="st1" d="M507.3,93.7l-0.2,3h-20.6c0.2-4.1,0.3-8.6,0.3-13.4c0-4.6-0.1-8.7-0.3-12.1h19.3l-0.2,2.9  c-4.7-0.1-9.7-0.2-14.9-0.2c0.1,2,0.1,4.8,0.1,8.2c4.5,0,8.6-0.1,12.1-0.2v2.9c-3.8-0.1-7.8-0.1-12.1-0.1c0,3.4,0.1,6.5,0.2,9.5  C496.8,94,502.2,93.9,507.3,93.7"/>
<path xmlns="http://www.w3.org/2000/svg" class="st1" d="M530.1,96.7h-4.9c0.2-4.3,0.4-8.7,0.4-13.4c0-4.6-0.1-8.7-0.4-12.1h4.9c-0.2,3.6-0.3,7.6-0.3,12.1  C529.7,88,529.8,92.5,530.1,96.7"/>
<path xmlns="http://www.w3.org/2000/svg" class="st1" d="M565.4,96.7h-3.6c0-0.2-2.8-3.3-8.4-9.4c-5.9-6.4-9.2-10.4-10-12h-0.3c0.3,3.1,0.5,5.9,0.5,8.1  c0,4.4,0.1,8.9,0.4,13.3h-4.3c0.3-4.3,0.4-8.7,0.4-13.4c0-4.6-0.1-8.7-0.4-12.1h4.9c0,0.4,2.6,3.3,7.7,8.9c5.4,5.9,8.5,9.7,9.2,11.5  h0.2c-0.3-3.2-0.4-5.9-0.4-8.1c0-4.8-0.1-9-0.3-12.3h4.4c-0.3,3.5-0.4,7.5-0.4,12.1C565,88,565.1,92.4,565.4,96.7"/>
<path xmlns="http://www.w3.org/2000/svg" class="st0" d="M298.6,119.9l-0.2,4.1c-5-0.2-10.1-0.3-15.4-0.3c0,3.7-0.1,8.4-0.1,14c0,6.3,0.1,12.8,0.4,19.7h-6.9  c0.3-6.5,0.4-13.1,0.4-19.7c0-5.6-0.1-10.3-0.2-14c-3.7,0-8.9,0.1-15.6,0.3l0.2-4.1H298.6z"/>
<path xmlns="http://www.w3.org/2000/svg" class="st1" d="M331.4,157.5H326c0-0.9-1.1-3.7-3.2-8.3H308c-2.1,4.6-3.1,7.3-3.1,8.3h-5.2c0-0.5,2.2-4.7,6.6-12.6  c4.4-7.9,6.6-12.2,6.6-13h5.9c0,0.8,2.1,5,6.3,12.8C329.4,152.5,331.4,156.7,331.4,157.5 M321.7,146.6c-4-7.7-6-11.8-6-12.3h-0.3  c0,0.4-2.1,4.5-6.2,12.3H321.7z"/>
<path xmlns="http://www.w3.org/2000/svg" class="st1" d="M341.4,157.4h-4.9c0.3-4.2,0.4-8.7,0.4-13.4c0-4.7-0.1-8.7-0.4-12.1h4.9c-0.2,3.6-0.3,7.6-0.3,12.1  C341.1,148.7,341.2,153.2,341.4,157.4"/>
<path xmlns="http://www.w3.org/2000/svg" class="st1" d="M392.4,131.9c0,0.9-1.8,5.2-5.5,12.8c-3.7,7.6-5.5,11.9-5.5,12.7H378c0-1.2-1.3-4.5-4-10c-2.9-6-4.6-9.8-5-11.6  h-0.3c-0.3,1.8-1.8,5.8-4.4,11.8c-2.4,5.6-3.6,8.9-3.6,9.8h-3.3c0-1.3-1.8-5.8-5.4-13.4c-3.6-7.6-5.4-11.7-5.4-12.1h4.9  c0,0.5,1.3,3.9,3.9,10.2c2.6,6.3,3.9,10.1,3.9,11.5h0.3c0-1.5,1.3-5.3,3.9-11.4c2.6-6.2,3.9-9.6,3.9-10.3h4.5  c0,0.9,1.4,4.5,4.1,10.9c2.7,6.4,4.1,10,4.1,10.8h0.3c0-1.3,1.2-4.9,3.7-10.9c2.5-6,3.7-9.6,3.7-10.8H392.4z"/>
<path xmlns="http://www.w3.org/2000/svg" class="st1" d="M423.7,157.5h-5.4c0-0.9-1.1-3.7-3.2-8.3h-14.8c-2.1,4.6-3.2,7.3-3.2,8.3h-5.2c0-0.5,2.2-4.7,6.6-12.6  c4.4-7.9,6.6-12.2,6.6-13h6c0,0.8,2.1,5,6.3,12.8C421.6,152.5,423.7,156.7,423.7,157.5 M413.9,146.6c-4-7.7-6-11.8-6-12.3h-0.3  c0,0.4-2.1,4.5-6.2,12.3H413.9z"/>
<path xmlns="http://www.w3.org/2000/svg" class="st1" d="M454.5,157.4h-3.6c0-0.2-2.8-3.3-8.4-9.4c-5.9-6.3-9.2-10.4-10-12h-0.3c0.3,3.1,0.5,5.9,0.5,8.1  c0,4.4,0.1,8.8,0.4,13.3h-4.3c0.3-4.3,0.4-8.7,0.4-13.4c0-4.6-0.2-8.7-0.4-12.1h4.9c0,0.4,2.6,3.3,7.7,8.9c5.4,5.9,8.5,9.8,9.2,11.5  h0.3c-0.3-3.2-0.4-5.9-0.4-8.2c0-4.8-0.1-9-0.3-12.3h4.4c-0.3,3.5-0.4,7.5-0.4,12.1C454,148.7,454.2,153.2,454.5,157.4"/>
<rect xmlns="http://www.w3.org/2000/svg" y="0.7" class="st2" width="239.5" height="214.6"/>
<path xmlns="http://www.w3.org/2000/svg" class="st3" d="M202.7,180c11.7-20.5,26.1-42.3,36.9-59.9V75.8c-38.2,51.9-69.1,90.6-73.9,97.8c-1.8,2.7-17.7,28.8-25.3,41.7  h44.6C190.7,203.9,195.5,192.6,202.7,180"/>
<path xmlns="http://www.w3.org/2000/svg" class="st3" d="M216.9,215.3h22.6v-58.8C231.9,175.8,224.2,197.5,216.9,215.3"/>
<path xmlns="http://www.w3.org/2000/svg" class="st3" d="M132.4,171.2c12.9-16.7,68.8-76.1,107.2-119.8V19.7C195.9,62,127.8,126.3,119.9,134.7  c-6.3,6.7-45.1,53.8-66.5,80.5h48C112,200.9,128.5,176.3,132.4,171.2"/>
<g xmlns="http://www.w3.org/2000/svg" xmlns:xlink="http://www.w3.org/1999/xlink">
	<g>
		<defs>
			<path id="SVGID_1_" d="M35.8,108.7l3.1,10.8l11.3-0.4l-9.3,6.3l3.9,10.6l-8.9-7l-8.9,7l3.9-10.6l-9.4-6.3l11.3,0.4L35.8,108.7z      M35.8,62l3.1,10.8l11.3-0.4l-9.3,6.3l3.9,10.6l-8.9-7l-8.9,7l3.9-10.6l-9.4-6.3l11.3,0.4L35.8,62z M99.4,62l3.1,10.8l11.3-0.4     l-9.4,6.3l3.9,10.6l-8.9-7l-8.9,7l3.9-10.6L85,72.4l11.3,0.4L99.4,62z M35.8,19.4l3.1,10.9l11.3-0.4l-9.3,6.3l3.9,10.6l-8.9-7     l-8.9,7l3.9-10.6l-9.4-6.3l11.3,0.4L35.8,19.4z M99.4,19.4l3.1,10.9l11.3-0.4l-9.3,6.3l3.9,10.6l-8.9-7l-8.9,7l3.9-10.6L85,29.9     l11.3,0.4L99.4,19.4z M163.1,19.4l3.1,10.9l11.3-0.4l-9.4,6.3l3.9,10.6l-8.9-7l-8.9,7l3.9-10.6l-9.4-6.3l11.3,0.4L163.1,19.4z      M0,0.6v214.5l36.3-32.5c25.5-25.2,50.7-50.5,58.9-58.4c13.7-13.3,71.4-61,112.3-94.8l32.2-28.8C239.7,0.6,0,0.6,0,0.6z"/>
		</defs>
		<clipPath id="SVGID_2_">
			<use xlink:href="#SVGID_1_" style="overflow:visible;"/>
		</clipPath>
		
			<radialGradient id="SVGID_3_" cx="-227.8683" cy="189.6329" r="14.375" gradientTransform="matrix(12.1036 0 0 12.1036 2780.9089 -2285.8372)" gradientUnits="userSpaceOnUse">
			<stop offset="0" style="stop-color:#2B9CD7"/>
			<stop offset="1" style="stop-color:#28347B"/>
		</radialGradient>
		<rect x="0" y="0.6" class="st4" width="239.7" height="214.5"/>
	</g>
</g>
</svg>