<svg xmlns="http://www.w3.org/2000/svg" viewBox="0 0 116 32"><g><path d="M26.3129 26.8351C25.7065 27.5082 24.9784 28.1638 24.2475 28.7191C23.4904 29.2936 22.7691 29.3274 22.1868 28.8977C21.6113 28.4728 21.6529 27.7747 21.9812 26.9925C22.1579 26.5725 22.3925 26.1631 22.5992 25.7508C19.9157 26.4788 16.9156 25.3365 16.594 22.2881C16.2541 19.061 18.9897 16.4674 21.8518 15.5645C21.8865 14.9746 21.9203 14.3681 21.9541 13.6826C22.6976 13.6623 23.418 13.6401 24.1963 13.6101C24.0263 14.2397 23.8689 14.8181 23.7048 15.4187C25.0257 15.8639 26.2414 16.4037 26.8836 17.7333C27.8434 19.7205 26.9589 22.2244 25.4564 23.7278C24.7843 24.4462 24.147 25.2004 23.5368 25.968C23.2799 26.2915 22.9651 26.7878 23.3311 26.9858C23.4923 27.0727 24.0456 26.7849 24.2899 26.5377C25.0924 25.7266 25.8349 24.8354 26.6354 24.0233C27.1733 23.4777 27.7797 22.9534 28.4073 22.5334C29.1132 22.0312 30.0044 21.6846 30.8571 21.7831C31.5542 19.9899 31.9366 18.0404 31.9366 16.001C31.9385 7.18014 24.7892 0.0307617 15.9693 0.0307617C7.14938 0.0307617 0 7.18014 0 16C0 24.8199 7.14938 31.9693 15.9693 31.9693C21.8518 31.9693 26.9908 28.7886 29.7611 24.0532C29.4405 24.0532 29.0871 24.1913 28.7221 24.4182C27.7806 25.0044 27.0323 26.0366 26.3119 26.8351H26.3129Z" fill="black"></path><path d="M24.9677 20.1435C24.8267 19.6201 24.2628 18.6979 24.23 18.7182C24.1566 18.6342 24.089 18.5405 24.0069 18.4672C23.0771 17.6242 21.6045 17.5566 20.552 18.2499C19.4241 18.9924 18.7135 20.3462 19.119 21.6923C19.4724 22.8674 20.2932 23.581 21.4925 23.7915C22.4562 23.9605 23.331 23.5453 24.1093 22.7574C24.9098 21.9472 25.211 21.0492 24.9667 20.1444L24.9677 20.1435Z" fill="black"></path></g><svg x="40" y="6" width="76" height="20" viewBox="0 0 76 20"><path d="M8.72322 3.60229L7.4911 5.00147C6.89435 4.56597 6.06972 4.34871 5.01334 4.34871C3.86233 4.34871 2.89479 4.72434 2.11168 5.47365C1.3305 6.22296 0.9375 7.15864 0.9375 8.28358C0.9375 10.0371 1.69357 11.2683 3.20572 11.977C2.67753 12.1045 2.23432 12.3111 1.87607 12.5989C1.51976 12.8866 1.34016 13.2072 1.34016 13.5616C1.34016 14.7136 2.10106 15.2891 3.62769 15.2891C3.94248 15.2891 4.38087 15.236 4.94285 15.1278C5.50484 15.0226 5.89302 14.9675 6.10738 14.9675C7.36557 14.9675 7.99225 15.4021 7.99225 16.273C7.99225 16.7153 7.74409 17.0842 7.24584 17.3825C6.74855 17.679 6.06682 17.8286 5.20357 17.8286C4.26789 17.8286 3.24338 17.4569 2.13389 16.7153L1.09972 18.24C1.56804 18.5944 2.187 18.8956 2.95659 19.1438C3.72522 19.392 4.45812 19.5156 5.15432 19.5156C6.51294 19.5156 7.63498 19.2104 8.52141 18.6002C9.40784 17.9928 9.85009 17.1923 9.85009 16.2016C9.85009 15.3065 9.55461 14.6045 8.96366 14.0985C8.37077 13.5954 7.54614 13.3424 6.48976 13.3424C6.19525 13.3424 5.74334 13.3936 5.13501 13.4979C4.52668 13.6002 4.0767 13.6524 3.78991 13.6524C3.13523 13.6524 2.80692 13.5172 2.80692 13.2401C2.80692 13.0411 2.96432 12.878 3.27911 12.7544C3.59293 12.6308 3.84399 12.5574 4.03228 12.54L5.60816 12.3768C6.70413 12.2706 7.59153 11.8486 8.26842 11.1128C8.94338 10.378 9.28038 9.46741 9.28038 8.38303C9.28038 7.35852 9.03704 6.52906 8.54941 5.89369L10.0171 4.81897L8.72612 3.60229H8.72322ZM6.72923 10.1752C6.34782 10.6522 5.82059 10.8917 5.1437 10.8917C4.46681 10.8917 3.90675 10.6455 3.50216 10.1549C3.09757 9.66247 2.89479 9.04158 2.89479 8.29227C2.89479 7.62406 3.10433 7.05532 3.52051 6.58603C3.93862 6.11771 4.48033 5.88307 5.14274 5.88307C5.7588 5.88307 6.27153 6.11771 6.68481 6.58603C7.09616 7.05435 7.29991 7.62406 7.29991 8.29227C7.29991 9.06862 7.11065 9.69626 6.72827 10.1752H6.72923Z" fill="black"></path><path d="M33.1239 4.34778C32.5088 4.34778 31.9101 4.48586 31.3279 4.76009C30.7456 5.03529 30.3478 5.37615 30.1334 5.78268C29.5173 4.82576 28.4407 4.34778 26.9015 4.34778C25.8104 4.34778 24.9008 4.81803 24.1698 5.75757C24.1698 5.6108 24.1698 4.54959 24.1698 4.54959H22.2637V15.3104H24.1708V7.36917C24.3504 7.0148 24.6574 6.69035 25.089 6.39681C25.5207 6.10229 25.9262 5.95455 26.3077 5.95455C26.9643 5.95455 27.4915 6.10519 27.8884 6.41225C28.2862 6.71546 28.4861 7.13163 28.4861 7.66079V15.3104H30.3931V7.34986C30.539 6.98872 30.8142 6.66621 31.2149 6.38232C31.6175 6.09746 32.0492 5.95552 32.5098 5.95552C33.9756 5.95552 34.7075 6.80236 34.7075 8.49508V15.3113H36.6155V8.11269C36.6155 6.92113 36.3094 5.99801 35.7021 5.33753C35.0937 4.67802 34.2334 4.34874 33.122 4.34874L33.1239 4.34778Z" fill="black"></path><path d="M54.9464 4.34778C53.5211 4.34778 52.4947 4.8779 51.8651 5.93331V4.54863H49.959V15.3113H51.8651V7.30931C52.12 6.92693 52.4841 6.60634 52.9591 6.34466C53.4342 6.08395 53.889 5.95359 54.3235 5.95359C55.1327 5.95359 55.7102 6.18244 56.0549 6.64207C56.4006 7.09977 56.5715 7.90123 56.5715 9.04547V15.3133H58.4786V8.64475C58.4786 5.78171 57.3015 4.34874 54.9454 4.34874L54.9464 4.34778Z" fill="black"></path><path d="M63.0609 0.484375C62.7336 0.484375 62.4564 0.598317 62.2276 0.82427C62.0007 1.05215 61.8867 1.33025 61.8867 1.65952C61.8867 1.9888 62.0036 2.26593 62.2334 2.49574C62.4632 2.72749 62.7403 2.8424 63.0609 2.8424C63.3815 2.8424 63.6692 2.72749 63.9 2.49574C64.1298 2.26593 64.2457 1.9859 64.2457 1.65952C64.2457 1.33315 64.1298 1.06084 63.9 0.830064C63.6692 0.600248 63.3882 0.484375 63.0609 0.484375Z" fill="black"></path><path d="M60.541 6.15536H62.0174V15.3113H63.9236V4.54858H60.541V6.15536Z" fill="black"></path><path d="M19.9638 8.807C19.9638 7.26202 19.6104 6.13515 18.9046 5.4264C18.1987 4.71667 17.067 4.36133 15.5076 4.36133C14.9253 4.36133 14.315 4.45499 13.6768 4.66646C13.0366 4.87696 12.406 5.20817 12.0449 5.50365C11.9725 5.55579 11.901 5.61759 11.8421 5.67263L12.6561 7.28133C12.913 7.03221 13.108 6.86902 13.108 6.86902C13.754 6.36111 14.6791 6.05404 15.7287 6.06949C17.2737 6.0917 18.0935 6.92213 18.1012 8.64574V8.91901C18.0693 8.91611 18.0375 8.91322 18.0046 8.91129C17.9805 8.91129 17.9563 8.91032 17.9322 8.91032C17.9235 8.91032 17.9139 8.91032 17.9052 8.91032C17.8347 8.91129 17.7574 8.91129 17.6734 8.91129C17.4465 8.91129 17.179 8.90839 16.8951 8.90549C16.5504 8.90163 16.1941 8.89777 15.8407 8.89777C14.991 8.89777 14.3923 8.92287 13.9577 8.97695C13.7077 9.00785 13.4344 9.04937 13.0877 9.18552C11.3651 9.85855 10.5009 11.811 11.1613 13.5375C11.6239 14.7465 12.7575 15.5595 14.0504 15.6078C14.09 15.6097 14.1306 15.6097 14.1711 15.6097C14.4937 15.6097 14.8142 15.5614 15.1232 15.4649C15.5549 15.3316 15.9179 15.1057 16.1458 14.9396C16.6064 14.6045 17.4233 13.889 18.1012 13.2787V15.3142H19.9677V12.7882C19.9667 12.7467 19.9658 12.7052 19.9658 12.6617V8.807H19.9638ZM18.0249 10.912C18.0249 10.912 15.8899 12.8993 15.1088 13.467C14.9726 13.5655 14.7843 13.6795 14.5912 13.7393C14.4261 13.7905 14.259 13.8118 14.0949 13.805C13.5126 13.7828 12.9767 13.4197 12.7575 12.8461C12.4369 12.009 12.8695 11.0482 13.698 10.7247C13.8477 10.6658 13.9635 10.6455 14.1509 10.6223C15.0875 10.5065 16.9695 10.5818 17.91 10.5692C17.9139 10.5692 17.9167 10.5692 17.9206 10.5692C18.0896 10.576 18.1601 10.7942 18.0259 10.912H18.0249Z" fill="black"></path><path d="M47.6611 8.807C47.6611 7.26202 47.3077 6.13515 46.6018 5.4264C45.896 4.71667 44.7643 4.36133 43.2048 4.36133C42.6226 4.36133 42.0123 4.45499 41.374 4.66646C40.7338 4.87696 40.1033 5.20817 39.7421 5.50365C39.6697 5.55579 39.5983 5.61759 39.5394 5.67263L40.3534 7.28133C40.6102 7.03221 40.8053 6.86902 40.8053 6.86902C41.4513 6.36207 42.3763 6.05501 43.4259 6.06949C44.9709 6.0917 45.7907 6.92213 45.7984 8.64574V8.91901C45.7666 8.91611 45.7347 8.91322 45.7019 8.91129C45.6777 8.91129 45.6536 8.91032 45.6295 8.91032C45.6208 8.91032 45.6111 8.91032 45.6024 8.91032C45.5319 8.91129 45.4547 8.91129 45.3707 8.91129C45.1438 8.91129 44.8763 8.90839 44.5924 8.90549C44.2477 8.90163 43.8914 8.89777 43.538 8.89777C42.6882 8.89777 42.0895 8.92287 41.655 8.97695C41.4049 9.00785 41.1317 9.04937 40.785 9.18552C39.0623 9.85855 38.1981 11.811 38.8586 13.5375C39.3211 14.7465 40.4548 15.5595 41.7477 15.6078C41.7873 15.6097 41.8279 15.6097 41.8684 15.6097C42.1909 15.6097 42.5115 15.5614 42.8205 15.4649C43.2521 15.3316 43.6152 15.1057 43.8431 14.9396C44.3037 14.6045 45.1206 13.889 45.7984 13.2787V15.3142H47.665V12.7882C47.664 12.7467 47.663 12.7052 47.663 12.6617V8.807H47.6611ZM45.7231 10.912C45.7231 10.912 43.5882 12.8993 42.807 13.467C42.6708 13.5655 42.4825 13.6795 42.2894 13.7393C42.1243 13.7905 41.9572 13.8118 41.7931 13.805C41.2108 13.7828 40.6749 13.4197 40.4557 12.8461C40.1351 12.009 40.5677 11.0482 41.3962 10.7247C41.5459 10.6658 41.6618 10.6455 41.8491 10.6223C42.7857 10.5065 44.6677 10.5818 45.6082 10.5692C45.6121 10.5692 45.615 10.5692 45.6188 10.5692C45.7878 10.576 45.8583 10.7942 45.7241 10.912H45.7231Z" fill="black"></path><path d="M75.3134 12.6617V8.807C75.3134 7.26202 74.96 6.13515 74.2542 5.4264C73.5483 4.71667 72.4166 4.36133 70.8572 4.36133C70.2749 4.36133 69.6646 4.45499 69.0264 4.66646C68.3862 4.87696 67.7556 5.20817 67.3945 5.50365C67.3221 5.55579 67.2506 5.61759 67.1917 5.67263L68.0057 7.28133C68.2626 7.03221 68.4576 6.86902 68.4576 6.86902C69.1036 6.36111 70.0287 6.05404 71.0783 6.06949C72.6233 6.0917 73.4431 6.92213 73.4508 8.64574V8.91901C73.4189 8.91611 73.3871 8.91322 73.3542 8.91129C73.3301 8.91129 73.3059 8.91032 73.2818 8.91032C73.2731 8.91032 73.2635 8.91032 73.2548 8.91032C73.1843 8.91129 73.107 8.91129 73.023 8.91129C72.7961 8.91129 72.5286 8.90839 72.2447 8.90549C71.9 8.90163 71.5437 8.89777 71.1903 8.89777C70.3406 8.89777 69.7419 8.92287 69.3074 8.97695C69.0573 9.00785 68.784 9.04937 68.4373 9.18552C66.7147 9.85855 65.8505 11.811 66.5109 13.5375C66.9735 14.7465 68.1071 15.5595 69.4 15.6078C69.4396 15.6097 69.4802 15.6097 69.5207 15.6097C69.8433 15.6097 70.1638 15.5614 70.4728 15.4649C70.9045 15.3316 71.2675 15.1057 71.4954 14.9396C71.956 14.6045 72.7729 13.889 73.4508 13.2787V15.3142H75.3173V12.7882C75.3163 12.7467 75.3154 12.7052 75.3154 12.6617H75.3134ZM73.3745 10.912C73.3745 10.912 71.2395 12.8993 70.4584 13.467C70.3222 13.5655 70.1339 13.6795 69.9408 13.7393C69.7757 13.7905 69.6086 13.8118 69.4445 13.805C68.8622 13.7828 68.3263 13.4197 68.1071 12.8461C67.7865 12.009 68.2191 11.0482 69.0476 10.7247C69.1973 10.6658 69.3131 10.6455 69.5005 10.6223C70.4371 10.5065 72.3191 10.5818 73.2596 10.5692C73.2635 10.5692 73.2664 10.5692 73.2702 10.5692C73.4392 10.576 73.5097 10.7942 73.3755 10.912H73.3745Z" fill="black"></path></svg></svg>