<svg width="128" height="176" viewBox="0 0 128 176" fill="none" xmlns="http://www.w3.org/2000/svg">
<g id="&#229;&#156;&#150;&#229;&#177;&#164; 1">
<g id="Group">
<path id="Vector" d="M6.75632 17.0289C6.75632 17.9273 6.75632 18.1891 6.7981 18.3795H4.08841V17.1241H2.9723V19.3018H0C0.0656533 18.4509 0.107433 17.2907 0.107433 16.1304V4.21265C0.107433 3.2428 0.0835587 2.53475 0.0417793 1.85051C0.42973 1.92191 0.775902 1.94571 1.33097 1.94571H5.27017C5.87298 1.94571 6.38627 1.92191 6.7981 1.85051C6.75632 2.34436 6.75632 2.70135 6.75632 4.23645V6.31893C8.75576 4.94449 10.2837 2.91555 11.1431 0.428467H14.6705C15.2077 1.86836 15.8105 2.8382 16.843 3.92705C17.8517 4.96829 18.9499 5.77154 20.4122 6.52718C19.7019 7.83022 19.3796 8.58587 18.8604 10.0496C18.1084 9.57952 17.9114 9.41292 17.1832 8.81792V10.1686C16.6879 10.121 16.1268 10.0972 15.2912 10.0972H10.988C10.2121 10.0972 9.59134 10.121 9.09596 10.1686V9.05592C8.58267 9.50812 8.36184 9.69256 7.67546 10.2162C7.39494 9.12732 7.16217 8.49067 6.75035 7.66363V17.0289H6.75632ZM2.96633 14.0003H4.08244V5.12894H2.96633V14.0003ZM10.8447 22.3957H7.63965C7.70531 21.5211 7.72321 20.7417 7.72321 19.6528V13.9289C7.72321 12.4414 7.69934 12.0369 7.65756 11.4002C8.26037 11.4478 8.79754 11.4716 9.89574 11.4716H16.8251C17.8577 11.4716 18.4605 11.4478 18.9141 11.4002C18.8485 12.0607 18.8305 12.6318 18.8305 13.8813V19.5814C18.8305 20.7417 18.8723 21.5687 18.938 22.3957H15.6673V21.3307H10.8507V22.3957H10.8447ZM10.8447 18.1415H15.6613V14.7381H10.8447V18.1415ZM15.1898 6.90798C14.4139 6.03333 13.9185 5.32529 13.0411 3.87945C12.3309 5.27769 11.925 5.96194 11.1491 6.90798H15.1957H15.1898Z" fill="black"/>
<path id="Vector_2" d="M32.8922 15.2081C32.546 17.1954 32.0327 18.6829 31.2329 19.8907C30.4809 21.051 29.7707 21.7352 28.3919 22.6813C27.7891 21.5448 27.2937 20.8606 26.303 19.8431C26.3268 21.283 26.3448 21.6876 26.4343 22.4671H22.9905C23.074 21.5924 23.1218 20.5512 23.1218 19.3671V13.1256C23.1218 12.6556 23.1218 12.2034 23.1636 11.4239C22.7338 12.132 22.4951 12.4414 21.9818 13.0304C21.6834 11.0907 21.4208 9.97809 20.9075 8.443C22.2444 6.76511 23.1636 4.89682 23.832 2.48114C24.1125 1.46369 24.2856 0.708046 24.3692 0L27.7235 0.684246C27.5922 1.11264 27.5504 1.24949 27.252 2.36214C28.1353 2.45734 28.7799 2.48114 29.5976 2.48114H30.3496V2.26694C30.3496 1.24949 30.3257 0.779446 30.2422 0.255849H33.3816C33.3159 0.731846 33.298 1.08289 33.298 2.21934V2.48114H34.2649C34.2649 1.13049 34.2411 0.874645 34.1814 0.279648H37.3208C37.2372 0.844895 37.2134 1.27329 37.2134 2.48114H38.7413C39.7082 2.48114 40.2692 2.45734 40.8482 2.38594C40.7825 3.04638 40.7646 3.40338 40.7646 4.27803V8.1336C40.7646 9.27005 40.7885 9.8353 40.8482 10.4779C40.2215 10.4065 40.0305 10.4065 38.8487 10.4065H37.2134V11.9416H39.3859C40.1797 11.9416 40.8899 11.9178 41.3197 11.8702C41.2779 12.251 41.254 12.4116 41.254 12.9828C41.1705 16.7194 40.9735 18.9447 40.6751 19.7717C40.3528 20.6702 39.7738 20.9796 38.419 20.9796C38.3533 20.9796 38.1385 20.9796 37.7923 20.9558C37.7505 19.1351 37.6192 18.189 37.2551 17.2192C37.6431 17.2906 37.661 17.2906 37.8162 17.2906C38.2459 17.2906 38.2877 17.0764 38.3533 15.2081H37.2134V19.3969C37.2134 21.2414 37.2372 21.765 37.2969 22.473H34.1336C34.2172 21.7412 34.2649 20.9141 34.2649 19.4445V15.2081H32.8862H32.8922ZM29.6035 5.74767C28.5292 5.74767 27.8369 5.79527 27.2579 5.86667V2.36214C26.8043 3.94483 26.7208 4.23043 26.3089 5.31927V19.6765C28.2905 18.6829 29.3648 17.3799 29.9676 15.2081H28.7441C27.9503 15.2081 27.5205 15.2319 26.6133 15.2795C27.0431 12.4176 27.24 10.2637 27.2818 7.19351C27.7354 7.26491 28.3561 7.28871 29.2395 7.28871H30.3556V5.75362H29.6035V5.74767ZM29.7707 10.4065C29.7428 10.9103 29.6931 11.422 29.6215 11.9416H30.5227C30.5645 11.3763 30.5883 11.0669 30.6062 10.4065H29.7647H29.7707ZM33.2801 10.4065C33.2563 11.1145 33.2563 11.2335 33.2383 11.9416H34.2709V10.4065H33.2801ZM33.304 7.28276H34.2709V5.74767H33.304V7.28276ZM38.1444 7.28276V5.74767H37.2193V7.28276H38.1444Z" fill="black"/>
<path id="Vector_3" d="M47.3896 14.9939C47.1748 14.3811 47.0912 14.1669 46.8764 13.7147V19.391C46.8764 20.8546 46.9002 21.6162 46.9838 22.5861H43.4982C43.6056 21.5924 43.6295 20.8606 43.6295 19.391V8.37161C43.6295 7.63977 43.6056 6.97337 43.5459 6.26533C44.0175 6.31293 44.7516 6.33673 45.7841 6.33673H47.7418C47.5687 5.81908 47.3956 5.41448 47.1807 4.98608H45.438C44.1667 4.98608 43.4564 5.00988 42.8357 5.10508V1.6303C43.7369 1.7255 44.5367 1.7731 45.6767 1.7731H51.0304V1.6065C51.0304 1.13645 51.0065 0.660457 50.923 0.255859H54.5578C54.4921 0.773506 54.4504 1.1543 54.4504 1.6065V1.7731H60.1323C61.3141 1.7731 62.1736 1.7255 62.9495 1.6303V5.10508C62.3228 5.00988 61.6364 4.98608 60.389 4.98608H58.5626C58.2642 5.64653 58.1568 5.90833 57.8942 6.33673H60.198C61.4036 6.33673 61.7916 6.31293 62.2213 6.26533C62.1557 6.94957 62.1378 7.40177 62.1378 8.39541V19.0875C62.1378 20.5988 61.9647 21.2652 61.4275 21.759C60.8665 22.2767 60.007 22.4671 58.3299 22.4671C58.1389 22.4671 57.6435 22.4433 56.6706 22.4195C56.5871 21.521 56.5393 21.1878 56.3483 20.4084H51.102V21.3544H47.9626C48.0044 20.8606 48.0283 20.5274 48.0283 19.51V14.6845L47.4016 14.9939H47.3896ZM46.8764 9.50806V11.8285C48.3386 11.2633 48.9653 10.6445 49.1802 9.50806H46.8764ZM56.1693 13.6492C57.0287 13.6492 57.5241 13.6254 57.7808 13.5778C57.739 14.0479 57.7151 14.4763 57.7151 15.0891V19.1351C58.0135 19.1827 58.1448 19.1827 58.2941 19.1827C58.7894 19.1827 58.8969 19.0875 58.8969 18.5223V13.0602C58.4433 13.1078 58.2702 13.1078 58.1448 13.1078C55.1964 13.1078 54.51 13.0602 54.0564 12.8936C53.5372 12.6794 53.2388 12.1855 53.2388 11.5429V9.50806H52.3136C52.2062 10.2875 52.0988 10.6921 51.8421 11.2811C51.3706 12.2986 50.8514 12.9114 49.8427 13.6492H56.1693ZM54.3608 6.33673C54.5996 5.86668 54.7488 5.53348 54.9219 4.98608H50.7678C51.0065 5.45613 51.114 5.74173 51.305 6.33673H54.3608ZM51.114 17.5465H54.8383V16.3862H51.114V17.5465ZM58.9028 9.50806H56.3424V10.1685C56.3424 10.4065 56.3841 10.5017 56.5155 10.5731C56.6468 10.6207 57.3988 10.6921 57.9359 10.6921C58.4811 10.6445 58.8034 10.6207 58.9028 10.6207V9.50806Z" fill="black"/>
<path id="Vector_4" d="M67.402 10.1209C66.4769 10.1209 65.9815 10.1447 65.313 10.2161V7.49701C65.9397 7.56841 66.4112 7.59221 67.402 7.59221H69.5507C69.3358 7.07456 69.2522 6.90796 69.0135 6.45577H67.1215C66.0889 6.45577 65.1877 6.50337 64.4536 6.57477V3.42723C65.1399 3.52243 65.701 3.57003 66.8648 3.57003C66.5425 2.86199 66.3038 2.48119 65.701 1.67794L68.7568 0.541501C69.3358 1.58274 69.5507 2.05279 70.1773 3.57003H70.804V2.03494C70.804 1.3745 70.7623 0.803299 70.6966 0.333252H73.9255C73.8838 0.73785 73.8599 1.1841 73.8599 1.86834V3.57003H74.7432V1.86834C74.7432 1.2079 74.7194 0.779499 74.6597 0.333252H77.8886C77.823 0.73785 77.8051 1.3269 77.8051 2.03494V3.57003H78.4497C79.136 2.33839 79.4404 1.67794 79.8284 0.517701L82.8842 1.67794C82.4545 2.50499 82.1979 2.95719 81.8099 3.57003C83.0991 3.57003 83.5766 3.52243 84.2809 3.42723V6.57477C83.5467 6.50337 82.6216 6.45577 81.5891 6.45577H79.8045C79.5479 7.06861 79.4822 7.16381 79.2912 7.59221H81.3145C82.2814 7.59221 82.7768 7.56841 83.4214 7.49701V10.2161C82.735 10.1447 82.2575 10.1209 81.3145 10.1209H75.8295V10.8528H80.4133C81.3145 10.8528 81.8756 10.829 82.5202 10.7576V13.2625C81.8935 13.1911 81.3145 13.1673 80.4133 13.1673H75.8295V13.8992H81.422C82.6694 13.8992 83.5527 13.8516 84.1734 13.7564V16.7373C83.2722 16.6421 82.4963 16.5945 81.4399 16.5945H78.1274C79.5896 17.8024 81.6786 18.6056 84.6688 19.0994C83.8511 20.4263 83.5288 21.0867 83.0573 22.4552C79.8284 21.4616 77.5902 20.1585 75.7638 18.1951C75.8056 18.8317 75.8295 18.9507 75.8295 19.5457V20.3013C75.8295 21.295 75.8534 21.9792 75.9369 22.6218H72.517C72.6244 21.89 72.6662 21.2236 72.6662 20.2775V19.5695C72.6662 18.9804 72.6662 18.909 72.6901 18.2427C71.574 19.4029 70.9473 19.9205 69.7834 20.6286C68.536 21.3842 67.3543 21.9316 65.7845 22.4493C65.313 21.1938 64.8833 20.3906 64.0417 19.2303C66.9006 18.6889 68.8822 17.8559 70.4101 16.5826H67.396C66.3217 16.5826 65.4801 16.6302 64.6207 16.7254V13.7445C65.3727 13.8397 66.2143 13.8873 67.3722 13.8873H72.6184V13.1554H68.3152C67.4139 13.1554 66.829 13.1792 66.2262 13.2506V10.7457C66.829 10.8171 67.3901 10.8409 68.3152 10.8409H72.6184V10.109H67.4139L67.402 10.1209ZM75.8116 7.59221C76.0264 7.09836 76.0921 6.93176 76.2652 6.45577H72.4334C72.6722 7.04481 72.7319 7.23521 72.8453 7.59221H75.8116Z" fill="black"/>
<path id="Vector_5" d="M93.9021 7.18751C93.4963 7.13991 93.2157 7.11611 92.2011 7.11611H87.6173C86.8414 7.11611 86.4355 7.13991 85.8745 7.21131V4.01618C86.3878 4.11138 86.7996 4.13518 87.6173 4.13518H92.1593C93.0606 4.13518 93.4306 4.11138 93.9021 4.06378V5.95587L96.4626 4.79563C97.4295 7.63376 97.6443 8.41321 98.1218 10.6861L95.4539 11.7273C94.9406 9.1748 94.6124 8.01456 93.9021 6.05107V7.18751ZM86.4176 22.5146C86.4833 21.8304 86.5251 20.9319 86.5251 20.2655V16.3862C86.5251 15.6781 86.5012 15.2259 86.4415 14.6131C86.913 14.6607 87.3905 14.6845 88.0351 14.6845H92.5294C93.2814 14.6845 93.4963 14.6845 93.8424 14.6131C93.8006 15.0177 93.8007 15.3211 93.8007 16.172V19.8609C93.8007 21.0212 93.8245 21.4436 93.8842 22.1814H90.9179V21.5448H89.4974V22.5146H86.4236H86.4176ZM86.5668 0.6604C87.1697 0.7318 87.5337 0.7556 88.5006 0.7556H91.7714C92.7204 0.7556 93.1023 0.7318 93.7052 0.6604V3.42713C93.1262 3.37954 92.6965 3.35573 91.7714 3.35573H88.5006C87.5994 3.35573 87.1219 3.37954 86.5668 3.42713V0.6604ZM86.6325 7.90151C87.0622 7.94911 87.2353 7.94911 87.9217 7.94911H92.4816C93.168 7.94911 93.3649 7.94911 93.7052 7.90151V10.573C93.2933 10.5254 93.0785 10.5254 92.4816 10.5254H87.9217C87.2532 10.5254 87.104 10.5254 86.6325 10.573V7.90151ZM86.6325 11.2573C86.9966 11.3049 87.2353 11.3049 87.9217 11.3049H92.4637C93.174 11.3049 93.3649 11.3049 93.7111 11.2573V13.9288C93.2814 13.8812 93.1322 13.8812 92.4219 13.8812H87.8799C87.2353 13.8812 87.0384 13.8812 86.6325 13.9288V11.2573ZM89.4258 18.778H90.9119V17.243H89.4258V18.778ZM96.8267 4.27798C96.0746 4.27798 95.2331 4.32558 94.3736 4.39698V0.826999C95.0421 0.898399 95.9015 0.945999 96.9759 0.945999H103.302C104.335 0.945999 105.284 0.898399 105.863 0.826999V4.39698C105.003 4.32558 104.144 4.27798 103.41 4.27798H101.584V12.1081H103.714C104.83 12.1081 105.457 12.0843 106.126 11.9891V15.6067C105.415 15.5115 104.598 15.4639 103.607 15.4639H101.584V19.2243C101.584 20.807 101.607 21.5686 101.715 22.467H98.1875C98.2949 21.521 98.3188 20.7415 98.3188 19.2243V15.4639H96.576C95.4778 15.4639 94.8332 15.4877 94.1229 15.5829V11.9891C94.6601 12.0843 95.2868 12.1081 96.5521 12.1081H98.3188V4.27798H96.8326H96.8267ZM106.185 5.96182C105.541 8.28231 105.129 9.5318 104.335 11.7333L101.691 10.692C102.467 8.56195 102.938 6.76507 103.285 4.80158L106.191 5.96182H106.185Z" fill="black"/>
<path id="Vector_6" d="M116.6 7.5683C116.129 7.9015 116.105 7.9253 114.881 8.75234C114.517 7.9967 114.386 7.7111 114.04 7.19345C113.693 7.14585 113.371 7.12205 112.446 7.12205H108.877C108.125 7.12205 107.695 7.14585 107.158 7.21725V4.04592C107.671 4.14112 108.083 4.16492 108.877 4.16492H112.404C113.288 4.16492 113.628 4.14112 114.123 4.09352V5.03957C115.221 4.37912 115.997 3.78412 116.857 2.90948C117.716 2.03483 118.17 1.39819 118.665 0.404541H122.324C123.422 2.34423 125.505 4.02212 128.006 4.96817C127.493 6.03321 127.164 6.95545 126.758 8.60954C125.917 8.22875 125.618 8.0443 124.908 7.5921V8.70474C124.395 8.65714 124.24 8.65714 123.297 8.65714H118.218C117.316 8.65714 117.119 8.65714 116.606 8.70474V7.5683H116.6ZM110.339 22.4908H107.606C107.647 21.8066 107.689 20.9795 107.689 20.2417V16.4338C107.689 15.6781 107.665 15.2497 107.606 14.6369C108.232 14.6845 108.507 14.6845 109.151 14.6845H112.613C113.3 14.6845 113.562 14.6607 113.884 14.6131C113.843 15.0177 113.843 15.3211 113.843 16.2196V20.7356C113.843 21.1878 113.867 21.8958 113.884 22.1755H111.348V21.5626H110.339V22.4849V22.4908ZM107.803 0.707989C108.405 0.779389 108.769 0.803189 109.736 0.803189H111.992C112.959 0.803189 113.323 0.779389 113.926 0.707989V3.45092C113.365 3.40332 112.918 3.37952 111.992 3.37952H109.736C108.835 3.37952 108.34 3.40332 107.803 3.45092V0.707989ZM107.844 7.8777C108.274 7.9253 108.447 7.9253 109.116 7.9253H112.559C113.204 7.9253 113.443 7.9253 113.765 7.8777V10.5492C113.353 10.5016 113.186 10.5016 112.559 10.5016H109.116C108.489 10.5016 108.232 10.5016 107.844 10.5492V7.8777ZM107.844 11.2573C108.208 11.3049 108.447 11.3049 109.116 11.3049H112.536C113.204 11.3049 113.437 11.3049 113.759 11.2573V13.9288C113.288 13.8812 113.18 13.8812 112.47 13.8812H109.074C108.447 13.8812 108.28 13.8812 107.85 13.9288V11.2573H107.844ZM110.256 18.8018H111.372V17.2429H110.256V18.8018ZM117.352 17.2667V20.6701C117.352 21.4734 117.376 21.997 117.436 22.4908H114.445C114.511 22.0386 114.529 21.4734 114.529 20.6225V11.6083C114.529 10.8051 114.505 10.3291 114.463 9.40684C114.935 9.45444 115.281 9.47824 116.29 9.47824H124.914C126.054 9.47824 126.376 9.45444 126.955 9.38304C126.89 10.1149 126.872 10.4719 126.872 11.6559V19.8847C126.872 21.8244 126.203 22.3897 123.906 22.4135C123.691 20.569 123.583 20.0275 123.237 19.0815C123.386 19.1053 123.559 19.1291 123.667 19.1291C123.906 19.1291 124.013 18.9863 124.013 18.7007V17.2608H123.088V19.6051C123.088 20.6225 123.112 21.2354 123.13 21.9256H120.999C121.041 21.2651 121.065 20.4857 121.065 19.6051V17.2608H120.247V19.6229C120.247 21.1104 120.247 21.4436 120.312 21.9434H118.164C118.206 21.4912 118.229 21.0688 118.229 19.6229V17.2608H117.346L117.352 17.2667ZM118.235 12.3937H117.352V14.3334H118.235V12.3937ZM122.491 5.65241C121.697 4.92057 121.351 4.51597 120.575 3.49852C119.841 4.46837 119.501 4.87297 118.749 5.65241H122.491ZM121.076 14.3334V12.3937H120.259V14.3334H121.076ZM124.019 14.3334V12.3937H123.094V14.3334H124.019Z" fill="black"/>
</g>
<path id="Vector_7" d="M13.8528 84.5312V78.5812H14.9988C15.8343 78.5812 16.2581 79.0691 16.2581 80.033V83.1686C16.2581 84.0433 15.8582 84.5252 15.1301 84.5252H13.8528V84.5312ZM13.8528 69.329H15.0346C15.7329 69.329 16.1328 69.8229 16.1328 70.6856V73.2322C16.1328 74.095 15.7329 74.5888 15.0346 74.5888H13.8528V69.329ZM21.1164 83.6684V80.1699C21.1164 78.611 20.2629 77.3317 18.8365 76.7486L18.6455 76.6713L18.8425 76.5999C20.1675 76.1239 20.9553 74.8565 20.9553 73.2084V70.1977C20.9553 66.9312 19.1289 65.2771 15.524 65.2771H9.03027V88.5891H15.6911C19.2961 88.5891 21.1224 86.929 21.1224 83.6684" fill="black"/>
<path id="Vector_8" d="M34.3546 65.2771H29.4664V83.3709C29.4664 84.2753 29.0665 84.793 28.3682 84.793C27.6699 84.793 27.2402 84.2634 27.2402 83.3709V65.2771H22.3818V83.5018C22.3818 86.7505 24.7334 88.8509 28.3682 88.8509C32.003 88.8509 34.3546 86.7505 34.3546 83.5018V65.2771Z" fill="black"/>
<path id="Vector_9" d="M41.2719 88.8509C44.9067 88.8509 47.2583 86.7506 47.2583 83.5019V80.4615C47.2583 78.4921 46.6555 77.3556 45.0321 76.2787L41.1943 73.5655C40.6094 73.1311 40.4065 72.6968 40.4065 71.8995V70.4953C40.4065 69.3232 40.9854 69.0733 41.4689 69.0733C42.1314 69.0733 42.5014 69.579 42.5014 70.4953V73.2739H47.2285V70.3644C47.2285 67.0146 45.0738 65.0154 41.4689 65.0154C37.8639 65.0154 35.5183 67.1157 35.5183 70.3644V72.8812C35.5183 74.8507 36.1211 75.9871 37.7446 77.0641L41.5823 79.8129C42.1075 80.2056 42.3701 80.5686 42.3701 81.4789V83.377C42.3701 84.2933 42.006 84.799 41.3376 84.799C40.8541 84.799 40.2752 84.5551 40.2752 83.377V80.17H35.5183V83.5079C35.5183 86.8518 37.6729 88.8569 41.2779 88.8569" fill="black"/>
<path id="Vector_10" d="M53.4716 65.2771H48.5476V88.5891H53.4716V65.2771Z" fill="black"/>
<path id="Vector_11" d="M60.1562 75.9989L63.3195 88.5891H67.6228V65.2771H63.224V71.3758L63.2897 76.4571H62.854L60.2637 65.2771H55.3755V88.5891H59.7743V80.8244L59.7026 75.9335H60.1383L60.1562 75.9989Z" fill="black"/>
<path id="Vector_12" d="M78.8197 69.5908V65.2771H69.5327V88.5891H78.8197V84.2694H74.3254V78.7121H78.2586V74.3984H74.3254V69.5908H78.8197Z" fill="black"/>
<path id="Vector_13" d="M91.3954 80.4615C91.3954 78.4921 90.7926 77.3556 89.1691 76.2787L85.3314 73.5655C84.7525 73.1311 84.5436 72.6968 84.5436 71.8995V70.4953C84.5436 69.3232 85.1225 69.0733 85.606 69.0733C86.2685 69.0733 86.6385 69.579 86.6385 70.4953V73.2739H91.3655V70.3644C91.3655 67.0146 89.2109 65.0154 85.606 65.0154C82.001 65.0154 79.6494 67.1157 79.6494 70.3644V72.8812C79.6494 74.8507 80.2522 75.9871 81.8757 77.0641L85.7134 79.8129C86.2386 80.2056 86.5012 80.5686 86.5012 81.4789V83.377C86.5012 84.2933 86.1372 84.799 85.4687 84.799C84.9852 84.799 84.4063 84.5551 84.4063 83.377V80.17H79.6494V83.5079C79.6494 86.8518 81.804 88.8569 85.409 88.8569C89.014 88.8569 91.3954 86.7566 91.3954 83.5079V80.4674V80.4615Z" fill="black"/>
<path id="Vector_14" d="M104.245 80.4615C104.245 78.4921 103.643 77.3556 102.019 76.2787L98.1815 73.5655C97.5966 73.1311 97.3937 72.6968 97.3937 71.8995V70.4953C97.3937 69.3232 97.9726 69.0733 98.4561 69.0733C99.1186 69.0733 99.4886 69.579 99.4886 70.4953V73.2739H104.216V70.3644C104.216 67.0146 102.061 65.0154 98.4561 65.0154C94.8511 65.0154 92.4995 67.1157 92.4995 70.3644V72.8812C92.4995 74.8507 93.1023 75.9871 94.7258 77.0641L98.5635 79.8129C99.0887 80.2056 99.3513 80.5686 99.3513 81.4789V83.377C99.3513 84.2933 98.9872 84.799 98.3188 84.799C97.8353 84.799 97.2564 84.5551 97.2564 83.377V80.17H92.4995V83.5079C92.4995 86.8518 94.6541 88.8569 98.2591 88.8569C101.864 88.8569 104.245 86.7566 104.245 83.5079V80.4674V80.4615Z" fill="black"/>
<path id="Vector_15" d="M21.4268 62.2841V38.9722H16.5386V48.0935H13.9483V38.9722H9.03027V62.2841H13.9483V52.4072H16.5386V62.2841H21.4268Z" fill="black"/>
<path id="Vector_16" d="M28.004 49.7L28.4815 45.2137H29.2096L29.7169 49.7L30.1944 53.7102H27.5205L27.998 49.694L28.004 49.7ZM30.4272 57.5777L30.9166 62.2841H35.6735L32.5162 38.9722H25.3838L22.2563 62.2841H26.8461L27.3057 57.5777H30.4332H30.4272Z" fill="black"/>
<path id="Vector_17" d="M42.6985 48.6468H41.4212V43.1252H42.6985C43.3848 43.1252 43.7967 43.631 43.7967 44.4818V47.2962C43.7967 48.1589 43.3968 48.6528 42.6985 48.6528M44.1011 62.2841H48.9475C48.661 61.4333 48.6192 60.2671 48.6192 59.2259V54.1565C48.6192 52.4607 47.891 51.2469 46.572 50.7353L46.3751 50.6579L46.578 50.5865C47.897 50.1105 48.6908 48.8432 48.6908 47.195V43.8928C48.6908 40.6263 46.8645 38.9722 43.2595 38.9722H36.5688V62.2841H41.4272V52.8058H42.5433C43.1043 52.8058 43.7728 53.0557 43.7728 54.2576V59.3925C43.7728 60.3206 43.8086 61.4868 44.107 62.2901" fill="black"/>
<path id="Vector_18" d="M57.5779 38.9722L56.5693 49.6226L56.1336 54.8288H55.6262L55.1905 49.6226L54.152 38.9722H49.1743L52.6599 62.2841H58.8373L62.3527 38.9722H57.5779Z" fill="black"/>
<path id="Vector_19" d="M81.6727 48.6468H80.3955V43.1252H81.6727C82.3591 43.1252 82.7709 43.631 82.7709 44.4818V47.2962C82.7709 48.1589 82.371 48.6528 81.6727 48.6528M83.0693 62.2841H87.9157C87.6293 61.4333 87.5875 60.2671 87.5875 59.2259V54.1565C87.5875 52.4607 86.8593 51.2469 85.5403 50.7353L85.3433 50.6579L85.5463 50.5865C86.8713 50.1105 87.6591 48.8432 87.6591 47.195V43.8928C87.6591 40.6263 85.8327 38.9722 82.2278 38.9722H75.5371V62.2841H80.3955V52.8058H81.5116C82.0726 52.8058 82.7411 53.0557 82.7411 54.2576V59.3925C82.7411 60.3206 82.7769 61.4868 83.0753 62.2901" fill="black"/>
<path id="Vector_20" d="M96.6059 56.7746C96.6059 57.6254 96.194 58.1312 95.5077 58.1312H94.2304V43.1253H95.5077C96.194 43.1253 96.6059 43.6311 96.6059 44.4819V56.7746ZM101.494 44.3153C101.494 41.0191 99.238 38.9663 95.6032 38.9663H89.3721V62.2783H95.6032C99.232 62.2783 101.494 60.2315 101.494 56.9352V44.3153Z" fill="black"/>
<path id="Vector_21" d="M67.008 49.7L67.4855 45.2137H68.2136L68.721 49.7L69.1984 53.7102H66.5246L67.002 49.694L67.008 49.7ZM69.4252 57.5777L69.9147 62.2841H74.6715L71.5142 38.9722H64.3819L61.2544 62.2841H65.8442L66.3037 57.5777H69.4312H69.4252Z" fill="black"/>
<path id="Vector_22" d="M15.1659 101.256H13.8886V95.7349H15.1659C15.8522 95.7349 16.2641 96.2406 16.2641 97.0915V99.9058C16.2641 100.769 15.8642 101.262 15.1659 101.262M16.5625 114.894H21.4089C21.1224 114.043 21.0806 112.877 21.0806 111.835V106.766C21.0806 105.076 20.3525 103.857 19.0334 103.345L18.8365 103.268L19.0394 103.196C20.3644 102.72 21.1523 101.453 21.1523 99.8046V96.5024C21.1523 93.2359 19.3259 91.5818 15.7209 91.5818H9.03027V114.894H13.8886V105.415H15.0047C15.5658 105.415 16.2342 105.665 16.2342 106.867V112.002C16.2342 112.93 16.27 114.096 16.5685 114.894" fill="black"/>
<path id="Vector_23" d="M32.0747 95.8955V91.5818H22.7937V114.894H32.0747V110.574H27.5864V105.017H31.5196V100.703H27.5864V95.8955H32.0747Z" fill="black"/>
<path id="Vector_24" d="M51.5675 91.5818H46.6436V114.894H51.5675V91.5818Z" fill="black"/>
<path id="Vector_25" d="M62.693 95.8955V91.5818H53.406V114.894H62.693V110.574H58.1987V105.017H62.1319V100.703H58.1987V95.8955H62.693Z" fill="black"/>
<path id="Vector_26" d="M77.6379 91.5818L76.677 105.047H75.9428L75.9369 104.975L75.0237 91.5818H71.0546L70.2012 105.047H69.467L69.091 100.203L68.4703 91.5818H63.3911L66.0352 114.894H71.6276L72.5468 102.369H73.2033L74.0926 114.894H79.6791L82.3231 91.5818H77.6379Z" fill="black"/>
<path id="Vector_27" d="M41.1468 91.5818L40.1381 102.232L39.7024 107.438H39.1891L38.7594 102.232L37.7149 91.5818H32.7432L36.2288 114.894H42.4061L45.9216 91.5818H41.1468Z" fill="black"/>
<path id="Vector_28" d="M4.1719 34.129V107.123C4.1719 119.904 7.83654 129.787 16.0551 139.17C25.2287 149.648 40.4602 159.941 63.9343 171.514C87.4083 159.941 102.64 149.648 111.813 139.17C120.032 129.787 123.697 119.904 123.697 107.123V34.129H4.1719ZM63.9283 176L63.039 175.566C38.5623 163.571 22.6682 152.843 13.0112 141.817C4.10625 131.643 0.137207 120.945 0.137207 107.123V30.1128H127.725V107.129C127.725 120.951 123.756 131.649 114.851 141.817C105.194 152.843 89.3003 163.571 64.8236 175.566L63.9343 176H63.9283Z" fill="black"/>
</g>
</svg>
