<?xml version="1.0" encoding="UTF-8" standalone="no"?>
<!-- Created with Inkscape (http://www.inkscape.org/) -->
<svg
   xmlns:svg="http://www.w3.org/2000/svg"
   xmlns="http://www.w3.org/2000/svg"
   version="1.0"
   width="814.96063"
   height="184.60629"
   id="svg63728">
  <defs
     id="defs63730">
    <clipPath
       id="clp10">
<path
   d="M 0.5,842.5 L 595.5,842.5 L 595.5,0.5 L 0.5,0.5 L 0.5,842.5 z "
   id="path66372" />

</clipPath>
    <clipPath
       id="clp9">
<path
   d="M -1,843 L 596,843 L 596,-1 L -1,-1 L -1,843 z "
   id="path66366" />

</clipPath>
    <clipPath
       id="clp11">
<path
   d="M 473.94,501.28 L 533.19,501.28 L 533.19,451.22 L 473.94,451.22 L 473.94,501.28 z "
   id="path66380" />

</clipPath>
    <clipPath
       id="clp3">
<path
   d="M 0.5,842.5 L 595.5,842.5 L 595.5,0.5 L 0.5,0.5 L 0.5,842.5 z "
   id="path66260" />

</clipPath>
    <clipPath
       id="clp2">
<path
   d="M -1,843 L 596,843 L 596,-1 L -1,-1 L -1,843 z "
   id="path66254" />

</clipPath>
    <clipPath
       id="clp4">
<path
   d="M 210.04,244.79 L 273,244.79 L 273,181.83 L 210.04,181.83 L 210.04,244.79 z "
   id="path66268" />

</clipPath>
    <clipPath
       id="clp5">
<path
   d="M 210.04,244.79 L 273,244.79 L 273,193.25 L 210.04,193.25 L 210.04,244.79 z "
   id="path66276" />

</clipPath>
    <clipPath
       id="clp6">
<path
   d="M 232.71,228.15 C 232.71,231.12 235.12,233.53 238.1,233.53 C 241.07,233.53 243.48,231.12 243.48,228.15 C 243.48,225.17 241.07,222.76 238.1,222.76 C 235.12,222.76 232.71,225.17 232.71,228.15"
   id="path66288" />

</clipPath>
    <clipPath
       id="clp7">
<path
   d="M 210.04,244.79 L 273,244.79 L 273,193.25 L 210.04,193.25 L 210.04,244.79 z "
   id="path66306" />

</clipPath>
    <clipPath
       id="clp8">
<path
   d="M 210.04,244.79 L 273,244.79 L 273,193.25 L 210.04,193.25 L 210.04,244.79 z "
   id="path66356" />

</clipPath>
    <clipPath
       id="clp13">
<path
   d="M 0.5,842.5 L 595.5,842.5 L 595.5,0.5 L 0.5,0.5 L 0.5,842.5 z "
   id="path66514" />

</clipPath>
    <clipPath
       id="clp12">
<path
   d="M -1,843 L 596,843 L 596,-1 L -1,-1 L -1,843 z "
   id="path66508" />

</clipPath>
  </defs>
  <g
     transform="translate(-8018.028,2599.501)"
     id="layer1">
    <g
       transform="translate(17.71652,17.71285)"
       id="g92696">
      <path
         d="M 8237.4416,-2505.3172 C 8237.4416,-2463.7441 8201.9041,-2450.3203 8127.7667,-2450.3203 C 8053.3102,-2450.3203 8018.028,-2463.7441 8018.028,-2505.3172 L 8018.028,-2597.0447 L 8084.7007,-2597.0447 L 8084.7007,-2514.913 C 8084.7007,-2496.1107 8093.6967,-2480.2049 8127.7667,-2480.2049 C 8161.8368,-2480.2049 8170.7689,-2496.1107 8170.7689,-2514.913 L 8170.7689,-2597.0447 L 8237.4416,-2597.0447 L 8237.4416,-2505.3172 z "
         style="fill:#0057a6;fill-rule:nonzero;stroke:none"
         id="path92289" />
      <path
         d="M 8253.5834,-2597.0447 L 8358.6646,-2597.0447 L 8411.7475,-2502.2484 L 8412.4492,-2502.2484 L 8468.0205,-2597.0447 L 8569.1459,-2597.0447 L 8569.1459,-2457.5043 L 8503.8769,-2457.5043 L 8504.9615,-2563.9636 L 8504.2598,-2563.9636 L 8440.3944,-2457.5043 L 8379.0811,-2457.5043 L 8318.1506,-2563.9636 L 8317.385,-2563.9636 L 8318.8525,-2457.5043 L 8253.5834,-2457.5043 L 8253.5834,-2597.0447 z "
         style="fill:#0057a6;fill-rule:nonzero;stroke:none"
         id="path92316" />
      <path
         d="M 8797.5556,-2457.734 C 8778.5427,-2455.0543 8757.3605,-2451.9856 8723.3543,-2451.9856 C 8656.6178,-2451.9856 8579.5456,-2471.1898 8579.5456,-2525.1403 C 8579.5456,-2574.778 8640.4761,-2599.5011 8722.9715,-2599.5011 C 8748.4283,-2599.5011 8773.1833,-2596.2345 8797.1727,-2592.1448 L 8791.8134,-2561.2903 C 8770.3123,-2568.0469 8749.513,-2571.3136 8726.5444,-2571.3136 C 8679.2037,-2571.3136 8648.3875,-2551.7264 8648.3875,-2525.1403 C 8648.3875,-2497.1507 8683.1593,-2480.2049 8731.9675,-2480.2049 C 8753.7876,-2480.2049 8775.9906,-2483.4333 8794.3017,-2487.5485 L 8797.5556,-2457.734 z "
         style="fill:#0057a6;fill-rule:nonzero;stroke:none"
         id="path92343" />
    </g>
  </g>
</svg>
